<?xml version="1.0" encoding="UTF-8"?>
<!DOCTYPE svg PUBLIC "-//W3C//DTD SVG 1.1//EN" "http://www.w3.org/Graphics/SVG/1.1/DTD/svg11.dtd">
<!-- Creator: CorelDRAW 2020 (64 Bit) -->
<svg xmlns="http://www.w3.org/2000/svg" xml:space="preserve" width="60.422cm" height="52.26cm" version="1.1" style="shape-rendering:geometricPrecision; text-rendering:geometricPrecision; image-rendering:optimizeQuality; fill-rule:evenodd; clip-rule:evenodd"
viewBox="0 0 60422 52260"
 xmlns:xlink="http://www.w3.org/1999/xlink"
 xmlns:xodm="http://www.corel.com/coreldraw/odm/2003">
 <defs>
  <style type="text/css">
   <![CDATA[
    .str1 {stroke:#FEFEFE;stroke-width:20;stroke-miterlimit:22.9256}
    .str2 {stroke:#076AA5;stroke-width:20;stroke-miterlimit:22.9256}
    .str0 {stroke:#019BD9;stroke-width:7.62;stroke-miterlimit:22.9256}
    .str3 {stroke:#1471A9;stroke-width:7.62;stroke-miterlimit:22.9256}
    .fil1 {fill:none}
    .fil4 {fill:#FEFEFE}
    .fil2 {fill:#FEFEFE}
    .fil0 {fill:#019BD9}
    .fil3 {fill:#076AA5}
    .fil5 {fill:#1471A9;fill-rule:nonzero}
   ]]>
  </style>
 </defs>
 <g id="Camada_x0020_1">
  <metadata id="CorelCorpID_0Corel-Layer"/>
  <g id="_1951071858688">
   <path class="fil0" d="M35497.96 769.9c3606.28,0 6529.81,2974.13 6529.81,6643.09 0,3668.97 -2923.53,6643.08 -6529.81,6643.08 -3606.28,0 -6529.83,-2974.11 -6529.83,-6643.08 0,-3668.96 2923.55,-6643.09 6529.83,-6643.09z"/>
   <line class="fil1 str0" x1="38373.24" y1="6524.03" x2="38373.24" y2= "13378.66" />
   <line class="fil1 str0" x1="38373.24" y1="6524.03" x2="38373.24" y2= "13378.66" />
   <path class="fil2 str1" d="M34562.12 3661.77c617.58,0 1118.24,523.01 1118.24,1168.16 0,645.15 -500.66,1168.14 -1118.24,1168.14 -617.59,0 -1118.25,-522.99 -1118.25,-1168.14 0,-645.15 500.66,-1168.16 1118.25,-1168.16z"/>
   <path class="fil2 str1" d="M31163.66 6844.55c617.57,0 1118.23,523.01 1118.23,1168.16 0,645.15 -500.66,1168.14 -1118.23,1168.14 -617.6,0 -1118.26,-522.99 -1118.26,-1168.14 0,-645.15 500.66,-1168.16 1118.26,-1168.16z"/>
   <path class="fil2 str1" d="M38373.24 5355.98c617.59,0 1118.25,522.99 1118.25,1168.16 0,645.15 -500.66,1168.14 -1118.25,1168.14 -617.58,0 -1118.24,-522.99 -1118.24,-1168.14 0,-645.17 500.66,-1168.16 1118.24,-1168.16z"/>
   <path class="fil3 str2" d="M16635.94 2246.16l13860.84 0c-1313.44,1315.13 -2128.15,3144.16 -2128.15,5166.83 0,2120.96 895.47,4029.09 2322.77,5354.94l0 20930.38 -6031.96 0 -32.4 -20420.7 -7991.1 0 0 -11031.45z"/>
   <path class="fil3 str2" d="M36857 33698.31l-5417.87 0 0 -20324.18c1151.92,812.83 2550.56,1289.72 4058.82,1289.72 464.77,0 919,-45.8 1359.05,-132.18l0 19166.64z"/>
   <polygon class="fil4" points="30792.84,9076.36 31531.12,9076.36 31531.12,33792.57 30792.84,33792.57 "/>
   <path class="fil4" d="M34192.98 4829.92l738.27 0 0 9237.87c-229.48,-17.83 -476.2,-52.79 -738.27,-103.12l0 -9134.75z"/>
   <path class="fil4" d="M37950.82 6274.66l738.27 0 0 6978.73c-231.25,130.49 -491.36,239.53 -738.27,358.3l0 -7337.03z"/>
   <path class="fil5 str3" d="M13086.27 41914.31l0 688.93c-250.14,130.28 -505.49,229.3 -765.01,297.04 -259.52,67.75 -516.95,102.14 -771.26,102.14 -244.93,0 -478.4,-32.31 -700.4,-95.89 -222,-64.61 -431.49,-159.46 -629.51,-285.57 -316.85,-207.41 -563.86,-473.18 -740,-795.24 -176.14,-323.1 -264.73,-673.29 -264.73,-1052.67 0,-286.62 58.36,-564.9 174.05,-834.84 115.69,-268.9 281.41,-505.49 495.07,-706.65 228.25,-215.74 483.6,-377.29 766.05,-483.6 283.5,-107.35 597.21,-160.51 941.16,-160.51 240.76,0 478.39,27.1 714.98,82.34 235.55,55.24 483.6,141.74 742.08,260.56l0 663.91c-270.98,-146.95 -525.29,-255.35 -763.97,-326.22 -237.63,-69.83 -469.01,-105.27 -693.09,-105.27 -499.24,0 -910.93,155.3 -1237.15,465.89 -326.23,310.59 -488.82,699.35 -488.82,1167.32 0,462.76 160.51,848.39 481.52,1158.98 321.01,310.59 723.32,465.89 1207.97,465.89 249.1,0 500.28,-41.69 754.59,-125.07 255.35,-83.38 513.83,-210.54 776.47,-381.47zm1005.78 -400.22c0,262.65 88.59,486.73 265.77,672.25 177.18,185.52 390.84,278.28 640.98,278.28 248.06,0 461.72,-92.76 639.95,-279.32 178.22,-186.56 266.81,-410.65 266.81,-671.21 0,-258.48 -88.59,-480.48 -265.77,-666 -177.18,-185.52 -390.85,-278.28 -640.99,-278.28 -250.14,0 -463.8,92.76 -640.98,278.28 -177.18,185.52 -265.77,407.52 -265.77,666zm-587.83 0c0,-409.61 145.91,-756.67 436.7,-1042.25 290.79,-284.54 646.2,-427.32 1065.18,-427.32 198.03,0 386.68,37.52 566.98,111.52 180.31,74 340.82,180.31 483.61,318.93 144.87,146.95 254.31,307.46 330.39,482.56 75.04,176.14 112.56,360.62 112.56,556.56 0,193.86 -38.56,381.46 -115.69,564.9 -78.16,183.43 -186.56,343.94 -327.26,480.48 -142.79,139.66 -302.25,245.97 -480.48,316.84 -178.22,71.92 -367.91,107.35 -570.11,107.35 -418.98,0 -774.39,-142.79 -1065.18,-427.32 -290.79,-285.58 -436.7,-632.65 -436.7,-1042.25zm3934.49 0c0,262.65 88.59,486.73 265.77,672.25 177.18,185.52 390.84,278.28 640.98,278.28 248.06,0 461.72,-92.76 639.95,-279.32 178.22,-186.56 266.81,-410.65 266.81,-671.21 0,-258.48 -88.59,-480.48 -265.77,-666 -177.18,-185.52 -390.85,-278.28 -640.99,-278.28 -250.14,0 -463.8,92.76 -640.98,278.28 -177.18,185.52 -265.77,407.52 -265.77,666zm-587.83 0c0,-409.61 145.91,-756.67 436.7,-1042.25 290.79,-284.54 646.2,-427.32 1065.18,-427.32 198.03,0 386.68,37.52 566.98,111.52 180.31,74 340.82,180.31 483.61,318.93 144.87,146.95 254.31,307.46 330.39,482.56 75.04,176.14 112.56,360.62 112.56,556.56 0,193.86 -38.56,381.46 -115.69,564.9 -78.16,183.43 -186.56,343.94 -327.26,480.48 -142.79,139.66 -302.25,245.97 -480.48,316.84 -178.22,71.92 -367.91,107.35 -570.11,107.35 -418.98,0 -774.39,-142.79 -1065.18,-427.32 -290.79,-285.58 -436.7,-632.65 -436.7,-1042.25zm3534.26 1413.29l0 -2820.33 562.82 0 0 612.84c157.38,-245.97 298.08,-418.98 423.15,-515.91 125.07,-97.97 261.61,-146.96 407.52,-146.96 102.14,0 205.32,22.93 310.59,67.75 105.27,44.82 216.79,113.6 334.56,208.45l-305.38 499.24c-91.71,-79.21 -179.26,-136.54 -262.64,-171.97 -83.38,-35.44 -170.93,-53.16 -262.65,-53.16 -153.21,0 -286.62,63.58 -400.22,191.78 -114.65,128.19 -195.95,306.42 -244.93,534.67l0 1593.6 -562.82 0zm4283.65 -627.43l0 -1587.35c-91.72,-65.66 -185.52,-113.61 -280.37,-145.92 -95.88,-31.26 -199.07,-46.9 -308.5,-46.9 -286.62,0 -512.79,87.55 -677.47,262.65 -164.67,175.1 -247.01,415.86 -247.01,723.32 0,307.46 82.34,549.27 247.01,725.41 164.68,176.14 390.85,264.73 677.47,264.73 109.43,0 212.62,-15.64 308.5,-46.9 94.85,-32.31 188.65,-81.3 280.37,-149.04zm0 471.09c-103.18,71.92 -214.71,125.07 -333.52,160.51 -119.86,34.39 -252.23,52.11 -398.14,52.11 -407.52,0 -738.96,-136.53 -996.39,-409.6 -257.44,-273.07 -385.63,-626.4 -385.63,-1059.97 0,-433.58 128.19,-786.9 385.63,-1059.97 257.43,-273.07 588.87,-409.6 996.39,-409.6 141.74,0 273.07,17.71 392.93,53.15 119.86,35.44 233.46,90.68 338.73,165.72l0 -1607.15 562.81 0 0 4271.14 -562.81 0 0 -156.34zm3765.65 -141.74c-187.61,119.86 -379.38,210.53 -578.45,270.98 -198.03,59.41 -403.35,89.64 -614.93,89.64 -445.04,0 -800.45,-137.58 -1066.22,-413.78 -265.78,-276.19 -398.14,-644.11 -398.14,-1104.78 0,-421.07 128.19,-763.97 383.55,-1026.62 255.35,-262.65 587.83,-393.97 999.51,-393.97 406.48,0 729.58,133.41 967.21,400.22 238.68,266.82 357.49,626.4 357.49,1080.82l0 82.33 -2113.68 0c16.68,266.82 104.23,475.27 262.65,625.35 158.42,150.09 371.04,225.13 637.85,225.13 179.27,0 365.83,-33.35 560.74,-99.01 193.85,-66.71 395.01,-166.76 602.42,-301.21l0 564.9zm-2063.66 -1415.38l1494.59 0c-18.76,-206.36 -92.76,-371.04 -223.04,-495.07 -130.29,-124.03 -293.92,-186.56 -488.82,-186.56 -215.75,0 -390.84,57.32 -523.21,173.01 -132.36,114.65 -218.87,284.54 -259.52,508.62zm2637.94 1713.46l0 -2820.33 562.81 0 0 342.9c140.71,-133.41 280.37,-231.38 420.03,-293.91 139.66,-61.5 289.75,-92.76 450.25,-92.76 305.38,0 546.14,88.59 722.28,265.77 176.14,176.14 264.73,420.03 264.73,728.53l0 1869.8 -562.81 0 0 -1725.97c0,-228.25 -47.94,-397.09 -144.87,-505.49 -96.93,-109.43 -247.02,-163.63 -450.26,-163.63 -144.87,0 -270.98,28.14 -380.42,84.42 -108.39,55.24 -214.7,148 -318.93,276.2l0 2034.47 -562.81 0zm4508.78 -574.28l0 -826.5c-379.38,117.77 -640.99,227.21 -784.82,326.22 -143.83,100.06 -215.74,215.75 -215.74,348.11 0,116.73 37.52,206.37 111.52,268.9 75.04,63.58 179.26,94.85 313.71,94.85 100.06,0 198.03,-17.72 293.92,-54.2 95.89,-35.44 189.69,-88.59 281.41,-157.38zm20.84 342.9c-141.74,100.06 -277.24,171.97 -404.39,215.75 -127.16,43.77 -263.69,65.66 -410.65,65.66 -252.22,0 -450.25,-60.45 -593.04,-181.35 -142.79,-121.95 -213.66,-288.71 -213.66,-500.28 0,-199.07 77.13,-375.21 232.42,-525.3 154.26,-151.12 386.68,-278.28 698.31,-382.5l670.17 -224.09c2.08,-16.67 3.12,-32.31 4.17,-48.98 1.04,-15.64 2.08,-39.61 2.08,-69.83 0,-168.85 -41.69,-289.75 -124.03,-363.75 -82.34,-74 -218.87,-111.52 -408.56,-111.52 -156.34,0 -318.93,33.35 -485.69,99.01 -166.76,66.71 -334.56,164.68 -501.32,294.96l0 -555.52c144.87,-118.81 306.42,-207.41 485.69,-267.86 179.27,-59.4 368.95,-89.63 571.15,-89.63 362.7,0 625.35,80.25 791.07,239.72 164.67,159.46 247.01,416.9 247.01,773.35l0 1194.42c0,100.05 8.34,170.92 26.06,212.61 17.72,41.69 45.86,62.54 86.51,62.54 35.43,0 70.87,-9.38 109.43,-27.1 37.52,-18.76 99.02,-61.49 184.48,-129.24l0 343.94c-102.14,87.55 -204.28,152.17 -308.51,193.86 -103.18,41.69 -210.53,62.54 -323.09,62.54 -107.36,0 -188.65,-22.93 -241.81,-67.75 -54.19,-44.82 -85.46,-115.69 -93.8,-213.66zm3507.18 -437.74l0 575.32c-142.79,51.07 -280.37,88.59 -414.82,113.6 -134.45,23.97 -267.86,36.48 -400.22,36.48 -459.64,0 -836.93,-137.58 -1131.89,-413.77 -294.95,-276.2 -441.91,-628.48 -441.91,-1055.8 0,-417.94 148,-767.1 442.95,-1047.46 294.96,-281.41 664.96,-422.11 1107.92,-422.11 136.53,0 270.98,14.59 403.35,42.73 132.36,28.14 262.64,71.91 390.84,131.32l0 601.38c-130.28,-79.21 -259.52,-137.58 -386.67,-175.1 -127.16,-37.52 -257.44,-56.28 -389.81,-56.28 -288.7,0 -525.29,86.51 -707.68,259.52 -182.4,173.01 -273.07,395.01 -273.07,666 0,277.24 92.76,502.36 278.28,676.42 184.48,174.05 428.36,261.6 728.53,261.6 138.62,0 274.11,-15.63 405.44,-47.94 131.32,-31.27 260.56,-80.25 388.76,-145.91zm-1807.27 1963.59l0 -268.9c160.51,36.48 304.34,64.62 431.5,83.38 127.15,19.81 235.54,29.19 325.18,29.19 121.94,0 213.66,-21.89 276.19,-65.66 61.5,-43.78 92.76,-106.31 92.76,-189.69 0,-105.27 -33.35,-182.4 -100.05,-229.3 -67.75,-47.94 -175.1,-71.91 -323.1,-71.91 -42.73,0 -74,0 -94.84,1.04 -19.81,1.04 -41.69,3.12 -63.58,5.21l0 -587.83 218.87 0 0 325.18 69.83 0c226.17,0 398.14,45.86 515.92,137.58 117.77,90.67 177.18,225.13 177.18,402.31 0,180.31 -64.62,317.88 -194.9,412.73 -130.28,94.84 -319.97,141.74 -568.03,141.74 -95.89,0 -205.32,-10.42 -329.35,-30.22 -124.03,-20.85 -268.9,-52.11 -433.58,-94.85zm3739.6 -1868.75l0 -826.5c-379.38,117.77 -640.99,227.21 -784.82,326.22 -143.83,100.06 -215.74,215.75 -215.74,348.11 0,116.73 37.52,206.37 111.52,268.9 75.04,63.58 179.26,94.85 313.71,94.85 100.06,0 198.03,-17.72 293.92,-54.2 95.89,-35.44 189.69,-88.59 281.41,-157.38zm20.84 342.9c-141.74,100.06 -277.24,171.97 -404.39,215.75 -127.16,43.77 -263.69,65.66 -410.65,65.66 -252.22,0 -450.25,-60.45 -593.04,-181.35 -142.79,-121.95 -213.66,-288.71 -213.66,-500.28 0,-199.07 77.13,-375.21 232.42,-525.3 154.26,-151.12 386.68,-278.28 698.31,-382.5l670.17 -224.09c2.08,-16.67 3.12,-32.31 4.17,-48.98 1.04,-15.64 2.08,-39.61 2.08,-69.83 0,-168.85 -41.69,-289.75 -124.03,-363.75 -82.34,-74 -218.87,-111.52 -408.56,-111.52 -156.34,0 -318.93,33.35 -485.69,99.01 -166.76,66.71 -334.56,164.68 -501.32,294.96l0 -555.52c144.87,-118.81 306.42,-207.41 485.69,-267.86 179.27,-59.4 368.95,-89.63 571.15,-89.63 362.7,0 625.35,80.25 791.07,239.72 164.67,159.46 247.01,416.9 247.01,773.35l0 1194.42c0,100.05 8.34,170.92 26.06,212.61 17.72,41.69 45.86,62.54 86.51,62.54 35.43,0 70.87,-9.38 109.43,-27.1 37.52,-18.76 99.02,-61.49 184.48,-129.24l0 343.94c-102.14,87.55 -204.28,152.17 -308.51,193.86 -103.18,41.69 -210.53,62.54 -323.09,62.54 -107.36,0 -188.65,-22.93 -241.81,-67.75 -54.19,-44.82 -85.46,-115.69 -93.8,-213.66zm448.17 -3808.38c-48.99,188.65 -126.11,333.52 -230.34,435.66 -105.27,101.1 -230.34,152.17 -377.29,152.17 -34.4,-2.09 -66.71,-5.21 -96.93,-9.38 -31.27,-3.13 -65.66,-11.47 -104.23,-23.97l-240.76 -77.13c-23.97,-8.34 -50.02,-14.59 -78.17,-19.8 -27.09,-5.21 -55.23,-7.3 -83.38,-7.3 -70.87,0 -131.32,15.63 -178.22,46.9 -47.94,31.27 -87.55,80.26 -117.77,146.96l-268.9 0c44.81,-185.52 118.81,-327.27 220.95,-424.2 103.18,-96.93 231.38,-144.87 386.68,-144.87 34.39,0 66.7,2.09 96.93,6.25 31.26,4.17 58.36,10.43 82.33,18.76l241.81 88.6c30.22,7.29 62.53,14.59 95.88,20.84 33.35,6.25 62.54,9.38 86.51,9.38 72.96,0 134.45,-18.76 183.44,-56.28 48.98,-37.52 86.5,-91.72 112.56,-162.59l268.9 0zm1258 2626.47c0,262.65 88.59,486.73 265.77,672.25 177.18,185.52 390.84,278.28 640.98,278.28 248.06,0 461.72,-92.76 639.95,-279.32 178.22,-186.56 266.81,-410.65 266.81,-671.21 0,-258.48 -88.59,-480.48 -265.77,-666 -177.18,-185.52 -390.85,-278.28 -640.99,-278.28 -250.14,0 -463.8,92.76 -640.98,278.28 -177.18,185.52 -265.77,407.52 -265.77,666zm-587.83 0c0,-409.61 145.91,-756.67 436.7,-1042.25 290.79,-284.54 646.2,-427.32 1065.18,-427.32 198.03,0 386.68,37.52 566.98,111.52 180.31,74 340.82,180.31 483.61,318.93 144.87,146.95 254.31,307.46 330.39,482.56 75.04,176.14 112.56,360.62 112.56,556.56 0,193.86 -38.56,381.46 -115.69,564.9 -78.16,183.43 -186.56,343.94 -327.26,480.48 -142.79,139.66 -302.25,245.97 -480.48,316.84 -178.22,71.92 -367.91,107.35 -570.11,107.35 -418.98,0 -774.39,-142.79 -1065.18,-427.32 -290.79,-285.58 -436.7,-632.65 -436.7,-1042.25zm7048.73 785.86l0 -1587.35c-91.72,-65.66 -185.52,-113.61 -280.37,-145.92 -95.88,-31.26 -199.07,-46.9 -308.5,-46.9 -286.62,0 -512.79,87.55 -677.47,262.65 -164.67,175.1 -247.01,415.86 -247.01,723.32 0,307.46 82.34,549.27 247.01,725.41 164.68,176.14 390.85,264.73 677.47,264.73 109.43,0 212.62,-15.64 308.5,-46.9 94.85,-32.31 188.65,-81.3 280.37,-149.04zm0 471.09c-103.18,71.92 -214.71,125.07 -333.52,160.51 -119.86,34.39 -252.23,52.11 -398.14,52.11 -407.52,0 -738.96,-136.53 -996.39,-409.6 -257.44,-273.07 -385.63,-626.4 -385.63,-1059.97 0,-433.58 128.19,-786.9 385.63,-1059.97 257.43,-273.07 588.87,-409.6 996.39,-409.6 141.74,0 273.07,17.71 392.93,53.15 119.86,35.44 233.46,90.68 338.73,165.72l0 -1607.15 562.81 0 0 4271.14 -562.81 0 0 -156.34zm3765.65 -141.74c-187.61,119.86 -379.38,210.53 -578.45,270.98 -198.03,59.41 -403.35,89.64 -614.93,89.64 -445.04,0 -800.45,-137.58 -1066.22,-413.78 -265.78,-276.19 -398.14,-644.11 -398.14,-1104.78 0,-421.07 128.19,-763.97 383.55,-1026.62 255.35,-262.65 587.83,-393.97 999.51,-393.97 406.48,0 729.58,133.41 967.21,400.22 238.68,266.82 357.49,626.4 357.49,1080.82l0 82.33 -2113.68 0c16.68,266.82 104.23,475.27 262.65,625.35 158.42,150.09 371.04,225.13 637.85,225.13 179.27,0 365.83,-33.35 560.74,-99.01 193.85,-66.71 395.01,-166.76 602.42,-301.21l0 564.9zm-2063.66 -1415.38l1494.59 0c-18.76,-206.36 -92.76,-371.04 -223.04,-495.07 -130.29,-124.03 -293.92,-186.56 -488.82,-186.56 -215.75,0 -390.84,57.32 -523.21,173.01 -132.36,114.65 -218.87,284.54 -259.52,508.62zm-46717.8 8896.64l0 -3476.95 -1413.3 0 0 -794.19 3952.22 0 0 794.19 -1413.29 0 0 3476.95 -1125.63 0zm4703.67 -316.84c-196.98,128.19 -405.43,224.08 -624.31,285.57 -218.87,62.54 -452.33,93.81 -700.39,93.81 -498.19,0 -889.04,-136.54 -1171.49,-409.61 -282.45,-272.03 -424.19,-650.36 -424.19,-1132.93 0,-445.04 138.62,-802.53 414.81,-1070.39 277.24,-267.85 646.2,-401.26 1105.83,-401.26 453.38,0 811.91,144.87 1074.56,434.62 262.65,289.74 393.97,689.97 393.97,1198.58l0 30.23 -2051.15 0 0 12.51c0,229.29 78.17,410.64 235.55,544.05 156.34,133.41 371.04,200.11 644.11,200.11 183.44,0 366.87,-32.31 550.31,-97.97 182.39,-64.62 366.87,-161.55 552.39,-289.74l0 602.42zm-1976.1 -1415.38l1125.63 -3.13c-16.68,-186.56 -72.96,-333.52 -169.89,-438.78 -96.93,-105.27 -222,-158.43 -374.17,-158.43 -157.38,0 -287.66,53.16 -390.84,158.43 -102.14,105.26 -166.76,253.26 -190.73,441.91zm4978.82 1601.94c-136.53,63.58 -280.36,110.48 -432.53,140.7 -151.13,30.23 -315.8,45.86 -492.99,45.86 -519.04,0 -929.68,-134.45 -1232.98,-404.39 -303.29,-269.94 -455.46,-634.73 -455.46,-1095.41 0,-455.46 150.08,-822.33 450.25,-1099.57 300.17,-276.2 700.39,-414.82 1200.67,-414.82 159.47,0 313.72,15.64 464.85,46.91 150.08,31.26 300.16,79.21 448.16,141.74l0 711.86c-155.29,-63.58 -296,-110.48 -423.15,-141.75 -127.16,-30.22 -244.93,-45.86 -353.32,-45.86 -260.57,0 -463.8,70.88 -610.76,212.62 -146.96,141.75 -219.92,337.69 -219.92,587.83 0,254.31 75.05,451.3 225.13,590.96 149.04,139.66 363.74,209.49 643.07,209.49 120.9,0 244.93,-15.63 373.12,-47.94 128.2,-31.27 266.82,-80.26 415.86,-145.92l0 707.69zm520.09 130.28l0 -2895.37 906.75 0 0 364.79c142.79,-146.96 291.83,-253.27 449.21,-319.97 156.34,-67.75 335.61,-101.1 537.8,-101.1 316.85,0 560.73,95.88 729.58,288.7 168.84,191.78 253.27,469.01 253.27,831.72l0 1831.23 -913.02 0 0 -1706.16c0,-205.33 -33.35,-356.45 -99.01,-451.3 -66.7,-95.88 -169.89,-143.83 -310.59,-143.83 -126.11,0 -243.89,38.57 -352.28,115.69 -109.44,77.13 -207.41,191.78 -294.96,341.86l0 1843.74 -906.75 0zm4289.89 -1444.56c0,245.97 59.41,444 178.23,590.96 119.86,148 277.24,222 472.14,222 196.98,0 355.4,-74 473.18,-222 117.77,-146.96 177.18,-344.99 177.18,-590.96 0,-247.01 -59.41,-445.04 -178.22,-594.08 -119.86,-150.09 -276.2,-225.13 -472.14,-225.13 -193.86,0 -350.2,75.04 -470.06,225.13 -119.86,149.04 -180.31,347.07 -180.31,594.08zm-938.02 1.04c0,-445.04 146.95,-808.78 440.87,-1088.11 293.91,-280.36 676.42,-420.02 1146.47,-420.02 471.1,0 855.69,140.7 1151.69,421.07 296,281.4 444,644.11 444,1087.06 0,441.92 -148,802.54 -442.96,1081.86 -294.95,278.28 -679.54,417.94 -1152.73,417.94 -470.05,0 -852.56,-138.62 -1146.47,-416.9 -293.92,-278.28 -440.87,-638.9 -440.87,-1082.9zm3665.6 1443.52l0 -4271.14 913.01 0 0 4271.14 -913.01 0zm2338.8 -1444.56c0,245.97 59.41,444 178.23,590.96 119.86,148 277.24,222 472.14,222 196.98,0 355.4,-74 473.18,-222 117.77,-146.96 177.18,-344.99 177.18,-590.96 0,-247.01 -59.41,-445.04 -178.22,-594.08 -119.86,-150.09 -276.2,-225.13 -472.14,-225.13 -193.86,0 -350.2,75.04 -470.06,225.13 -119.86,149.04 -180.31,347.07 -180.31,594.08zm-938.02 1.04c0,-445.04 146.95,-808.78 440.87,-1088.11 293.91,-280.36 676.42,-420.02 1146.47,-420.02 471.1,0 855.69,140.7 1151.69,421.07 296,281.4 444,644.11 444,1087.06 0,441.92 -148,802.54 -442.96,1081.86 -294.95,278.28 -679.54,417.94 -1152.73,417.94 -470.05,0 -852.56,-138.62 -1146.47,-416.9 -293.92,-278.28 -440.87,-638.9 -440.87,-1082.9zm4240.92 1962.56c0,117.77 56.28,206.37 169.88,266.82 112.57,59.4 281.41,89.63 505.5,89.63 224.08,0 395.01,-30.23 511.74,-89.63 117.77,-60.45 176.14,-146.96 176.14,-260.57 0,-105.26 -58.37,-187.6 -176.14,-248.05 -116.73,-59.41 -281.41,-89.63 -492.98,-89.63 -222,0 -393.97,29.18 -513.83,86.5 -119.86,58.37 -180.31,139.66 -180.31,244.93zm675.38 -2857.85c-156.34,0 -282.45,44.82 -377.3,135.49 -94.84,90.68 -141.74,210.54 -141.74,358.54 0,148 46.9,267.86 141.74,358.53 94.85,90.68 220.96,135.49 377.3,135.49 156.33,0 282.45,-44.81 377.29,-135.49 94.84,-90.67 141.75,-210.53 141.75,-358.53 0,-148 -46.91,-267.86 -141.75,-358.54 -94.84,-90.67 -220.96,-135.49 -377.29,-135.49zm-607.64 1390.36c-257.43,-76.08 -448.16,-190.73 -574.28,-346.02 -125.07,-154.26 -187.6,-352.29 -187.6,-592 0,-328.31 129.24,-578.45 388.76,-750.42 258.48,-171.97 633.69,-258.48 1124.59,-258.48l1469.57 0 0 606.59 -406.48 0c46.9,72.96 81.3,150.08 104.23,230.34 21.88,80.25 33.35,168.84 33.35,264.73 0,260.56 -77.13,467.97 -230.34,624.31 -154.25,155.29 -385.63,259.52 -695.18,312.67 -72.96,14.59 -169.89,26.06 -289.75,36.48 -240.76,21.89 -360.61,87.55 -360.61,194.9 0,103.18 164.67,171.97 494.02,204.28 124.03,12.51 225.13,22.93 302.26,33.35 308.5,40.65 544.05,133.41 705.6,278.28 161.55,143.83 242.84,335.61 242.84,573.24 0,313.72 -130.28,551.35 -390.84,712.9 -260.56,161.55 -644.11,242.84 -1152.73,242.84 -467.97,0 -834.84,-75.04 -1098.53,-226.16 -264.73,-150.09 -397.1,-358.54 -397.1,-625.35 0,-168.85 65.66,-314.76 196.99,-436.71 130.28,-121.94 321.01,-215.74 571.15,-280.36 -112.56,-34.4 -195.94,-81.3 -252.22,-140.71 -56.29,-58.36 -84.43,-131.32 -84.43,-216.78 0,-111.52 40.65,-204.28 120.9,-277.24 80.26,-72.96 202.2,-128.2 365.83,-164.68zm2638.99 948.45l0 -2895.37 913.01 0 0 2895.37 -913.01 0zm-31.27 -3832.35c0,-136.54 46.9,-252.23 141.74,-347.07 94.85,-94.85 209.5,-141.75 346.03,-141.75 138.62,0 254.31,46.9 347.07,140.71 93.8,93.8 140.7,209.49 140.7,348.11 0,137.57 -46.9,252.22 -140.7,346.02 -92.76,93.81 -208.45,140.71 -347.07,140.71 -136.53,0 -251.18,-46.9 -346.03,-141.75 -94.84,-94.84 -141.74,-209.49 -141.74,-344.98zm3126.75 3140.3l0 -708.73c-311.64,109.43 -520.09,206.36 -624.31,288.7 -105.27,82.34 -157.38,180.31 -157.38,293.91 0,93.81 28.14,167.81 85.46,223.05 57.33,55.23 135.5,82.33 235.55,82.33 66.71,0 138.62,-15.63 216.79,-45.86 77.13,-30.22 158.42,-75.04 243.89,-133.4zm45.86 424.19c-136.54,110.48 -278.29,191.78 -426.29,244.93 -146.95,53.16 -305.37,79.21 -474.22,79.21 -279.32,0 -489.86,-67.74 -632.64,-203.24 -142.79,-135.49 -213.67,-336.64 -213.67,-603.46 0,-232.42 105.27,-423.15 315.81,-573.24 210.53,-150.08 672.25,-328.31 1385.15,-533.63 2.08,-10.42 3.12,-21.89 4.17,-33.35 1.04,-12.51 2.08,-29.18 2.08,-50.03 0,-137.58 -46.9,-239.72 -138.62,-305.38 -92.76,-65.66 -235.55,-99.01 -429.41,-99.01 -162.59,0 -329.35,39.6 -501.32,118.81 -170.93,79.21 -337.69,193.86 -500.28,343.95l12.51 -719.16c175.1,-117.77 367.91,-205.32 578.45,-263.69 210.53,-57.32 447.12,-86.5 709.77,-86.5 417.94,0 720.19,80.25 906.76,240.76 187.6,160.5 281.4,416.9 281.4,770.22l0 1153.77c0,67.75 9.38,113.61 27.1,140.7 18.76,26.06 48.99,39.61 91.72,39.61 39.61,0 79.21,-5.21 120.9,-15.63 41.69,-9.38 97.97,-29.19 166.76,-57.33l0 506.54c-164.67,79.21 -311.63,137.57 -438.79,174.05 -127.15,36.48 -248.05,55.24 -361.66,55.24 -144.87,0 -258.47,-27.1 -340.81,-81.29 -82.34,-54.2 -130.28,-134.45 -144.87,-242.85zm6133.64 -48.98c-196.98,128.19 -405.43,224.08 -624.31,285.57 -218.87,62.54 -452.33,93.81 -700.39,93.81 -498.19,0 -889.04,-136.54 -1171.49,-409.61 -282.45,-272.03 -424.19,-650.36 -424.19,-1132.93 0,-445.04 138.62,-802.53 414.81,-1070.39 277.24,-267.85 646.2,-401.26 1105.83,-401.26 453.38,0 811.91,144.87 1074.56,434.62 262.65,289.74 393.97,689.97 393.97,1198.58l0 30.23 -2051.15 0 0 12.51c0,229.29 78.17,410.64 235.55,544.05 156.34,133.41 371.04,200.11 644.11,200.11 183.44,0 366.87,-32.31 550.31,-97.97 182.39,-64.62 366.87,-161.55 552.39,-289.74l0 602.42zm-1976.1 -1415.38l1125.63 -3.13c-16.68,-186.56 -72.96,-333.52 -169.89,-438.78 -96.93,-105.27 -222,-158.43 -374.17,-158.43 -157.38,0 -287.66,53.16 -390.84,158.43 -102.14,105.26 -166.76,253.26 -190.73,441.91zm2539.96 1732.22l0 -2895.37 906.75 0 0 364.79c140.71,-144.88 289.75,-251.19 448.17,-318.93 157.38,-67.75 333.52,-102.14 527.38,-102.14 215.74,0 393.97,43.77 534.67,131.32 140.71,87.55 249.1,220.96 324.14,399.18 185.52,-194.9 360.62,-332.47 526.34,-411.69 165.72,-79.21 356.45,-118.81 572.19,-118.81 316.85,0 559.69,95.88 728.54,288.7 168.84,191.78 253.26,469.01 253.26,831.72l0 1831.23 -913.01 0 0 -1706.16c0,-213.66 -32.31,-365.83 -95.88,-457.55 -63.58,-91.72 -167.81,-137.58 -312.68,-137.58 -125.07,0 -241.8,38.57 -350.19,114.65 -107.36,76.08 -206.37,190.73 -298.09,342.9l0 1843.74 -888 0 0 -1706.16c0,-211.58 -32.31,-363.75 -95.88,-456.51 -64.62,-92.76 -168.85,-138.62 -313.72,-138.62 -124.03,0 -240.76,38.57 -349.15,114.65 -109.44,76.08 -208.45,190.73 -298.09,342.9l0 1843.74 -906.75 0zm7197.78 -339.77l0 -948.45c322.05,200.11 593.04,338.73 813.99,418.98 220.96,79.21 434.62,118.82 643.07,118.82 209.49,0 367.92,-32.31 476.31,-95.89 107.35,-64.62 161.55,-159.46 161.55,-285.57 0,-102.14 -33.35,-184.48 -101.1,-245.97 -66.7,-62.54 -223.04,-136.54 -469.01,-222 -608.68,-213.67 -1027.66,-432.54 -1256.96,-655.58 -228.25,-223.04 -342.9,-507.57 -342.9,-853.6 0,-364.79 149.05,-660.79 447.13,-889.04 298.08,-228.25 685.8,-341.86 1164.19,-341.86 241.8,0 485.69,29.18 729.58,88.59 243.88,59.41 485.69,145.92 723.32,259.52l0 877.58c-286.62,-144.88 -544.06,-252.23 -772.31,-321.02 -227.21,-69.83 -434.62,-104.22 -622.22,-104.22 -203.24,0 -358.54,29.18 -464.84,88.59 -107.36,59.41 -160.51,143.83 -160.51,253.27 0,89.63 47.94,174.05 143.83,252.22 94.84,79.21 239.72,153.21 432.53,225.13 40.65,16.67 103.19,39.6 186.57,69.83 407.52,151.12 699.35,280.36 876.53,387.72 185.52,113.6 325.18,260.56 420.02,439.82 94.85,179.27 141.75,388.76 141.75,628.48 0,395.01 -149.04,704.56 -447.12,930.73 -299.13,226.17 -712.9,338.73 -1242.37,338.73 -264.73,0 -520.08,-34.39 -768.13,-103.18 -247.02,-69.83 -484.65,-173.01 -712.9,-311.63z"/>
   <path class="fil5 str3" d="M48014.17 49418.51l0 -708.73c-311.64,109.43 -520.09,206.36 -624.31,288.7 -105.27,82.34 -157.38,180.31 -157.38,293.91 0,93.81 28.14,167.81 85.46,223.05 57.33,55.23 135.5,82.33 235.55,82.33 66.71,0 138.62,-15.63 216.79,-45.86 77.13,-30.22 158.42,-75.04 243.89,-133.4zm45.86 424.19c-136.54,110.48 -278.29,191.78 -426.29,244.93 -146.95,53.16 -305.37,79.21 -474.22,79.21 -279.32,0 -489.86,-67.74 -632.64,-203.24 -142.79,-135.49 -213.67,-336.64 -213.67,-603.46 0,-232.42 105.27,-423.15 315.81,-573.24 210.53,-150.08 672.25,-328.31 1385.15,-533.63 2.08,-10.42 3.12,-21.89 4.17,-33.35 1.04,-12.51 2.08,-29.18 2.08,-50.03 0,-137.58 -46.9,-239.72 -138.62,-305.38 -92.76,-65.66 -235.55,-99.01 -429.41,-99.01 -162.59,0 -329.35,39.6 -501.32,118.81 -170.93,79.21 -337.69,193.86 -500.28,343.95l12.51 -719.16c175.1,-117.77 367.91,-205.32 578.45,-263.69 210.53,-57.32 447.12,-86.5 709.77,-86.5 417.94,0 720.19,80.25 906.76,240.76 187.6,160.5 281.4,416.9 281.4,770.22l0 1153.77c0,67.75 9.38,113.61 27.1,140.7 18.76,26.06 48.99,39.61 91.72,39.61 39.61,0 79.21,-5.21 120.9,-15.63 41.69,-9.38 97.97,-29.19 166.76,-57.33l0 506.54c-164.67,79.21 -311.63,137.57 -438.79,174.05 -127.15,36.48 -248.05,55.24 -361.66,55.24 -144.87,0 -258.47,-27.1 -340.81,-81.29 -82.34,-54.2 -130.28,-134.45 -144.87,-242.85zm3619.73 -94.84c-143.83,146.95 -293.91,253.26 -448.17,319.97 -154.25,65.66 -332.47,99.01 -533.63,99.01 -316.84,0 -560.73,-95.89 -731.66,-288.7 -170.93,-192.82 -256.39,-469.01 -256.39,-829.63l0 -1833.32 913.01 0 0 1708.25c0,206.36 33.35,356.45 99.01,451.29 65.67,94.85 168.85,141.75 309.55,141.75 125.07,0 243.89,-38.57 354.37,-114.65 110.48,-76.08 208.45,-189.69 293.91,-340.82l0 -1845.82 913.01 0 0 2895.37 -913.01 0 0 -362.7zm-975.54 -2932.89l623.26 -1063.1 677.46 0 -900.5 1063.1 -400.22 0zm4546.29 2471.17l0 -1240.28c-79.22,-59.41 -160.51,-104.22 -244.93,-134.45 -83.38,-30.22 -168.85,-45.86 -256.4,-45.86 -222,0 -397.09,71.92 -525.29,215.75 -128.2,142.79 -192.82,338.73 -192.82,584.7 0,240.76 64.62,433.58 192.82,580.53 128.2,146.96 297.04,219.92 507.58,219.92 89.63,0 176.14,-14.59 260.56,-44.82 84.42,-29.18 170.93,-74 258.48,-135.49zm36.47 586.79c-119.85,102.14 -248.05,177.18 -384.59,226.17 -136.53,48.98 -286.61,74 -451.29,74 -407.52,0 -735.83,-138.62 -987.01,-415.86 -251.18,-276.2 -377.3,-639.94 -377.3,-1090.2 0,-449.21 126.12,-815.04 378.34,-1094.36 252.23,-280.36 580.53,-420.03 985.97,-420.03 158.42,0 303.29,22.93 434.62,68.79 131.32,45.86 253.26,113.61 364.79,205.33l0 -1587.35 913.01 0 0 4271.14 -876.54 0 0 -237.63zm4302.41 -79.21c-196.98,128.19 -405.43,224.08 -624.31,285.57 -218.87,62.54 -452.33,93.81 -700.39,93.81 -498.19,0 -889.04,-136.54 -1171.49,-409.61 -282.45,-272.03 -424.19,-650.36 -424.19,-1132.93 0,-445.04 138.62,-802.53 414.81,-1070.39 277.24,-267.85 646.2,-401.26 1105.83,-401.26 453.38,0 811.91,144.87 1074.56,434.62 262.65,289.74 393.97,689.97 393.97,1198.58l0 30.23 -2051.15 0 0 12.51c0,229.29 78.17,410.64 235.55,544.05 156.34,133.41 371.04,200.11 644.11,200.11 183.44,0 366.87,-32.31 550.31,-97.97 182.39,-64.62 366.87,-161.55 552.39,-289.74l0 602.42zm-1976.1 -1415.38l1125.63 -3.13c-16.68,-186.56 -72.96,-333.52 -169.89,-438.78 -96.93,-105.27 -222,-158.43 -374.17,-158.43 -157.38,0 -287.66,53.16 -390.84,158.43 -102.14,105.26 -166.76,253.26 -190.73,441.91z"/>
  </g>
 </g>
</svg>
