<?xml version="1.0" encoding="UTF-8"?>
<!DOCTYPE svg PUBLIC "-//W3C//DTD SVG 1.1//EN" "http://www.w3.org/Graphics/SVG/1.1/DTD/svg11.dtd">
<!-- Creator: CorelDRAW 2020 (64 Bit) -->
<svg xmlns="http://www.w3.org/2000/svg" xml:space="preserve" width="45.5cm" height="10cm" version="1.1" style="shape-rendering:geometricPrecision; text-rendering:geometricPrecision; image-rendering:optimizeQuality; fill-rule:evenodd; clip-rule:evenodd"
viewBox="0 0 45500 10000"
 xmlns:xlink="http://www.w3.org/1999/xlink"
 xmlns:xodm="http://www.corel.com/coreldraw/odm/2003">
 <defs>
  <style type="text/css">
   <![CDATA[
    .str6 {stroke:black;stroke-width:150;stroke-miterlimit:22.9256}
    .str0 {stroke:#FEFEFE;stroke-width:20;stroke-miterlimit:22.9256}
    .str2 {stroke:#00AFEF;stroke-width:20;stroke-miterlimit:22.9256}
    .str3 {stroke:#106EB7;stroke-width:20;stroke-miterlimit:22.9256}
    .str4 {stroke:#106EB7;stroke-width:20;stroke-miterlimit:22.9256}
    .str1 {stroke:#EB2939;stroke-width:20;stroke-miterlimit:22.9256}
    .str5 {stroke:#EB2939;stroke-width:7.62;stroke-miterlimit:22.9256}
    .fil0 {fill:#FEFEFE}
    .fil2 {fill:#00AFEF}
    .fil3 {fill:#106EB7}
    .fil5 {fill:#106EB7}
    .fil1 {fill:#EB2939}
    .fil6 {fill:#00AFEF;fill-rule:nonzero}
    .fil7 {fill:black;fill-rule:nonzero}
    .fil9 {fill:black;fill-rule:nonzero}
    .fil4 {fill:#106EB7;fill-rule:nonzero}
    .fil8 {fill:#EB2939;fill-rule:nonzero}
   ]]>
  </style>
    <mask id="id0">
  <linearGradient id="id1" gradientUnits="userSpaceOnUse" x1="16819.54" y1="4199.49" x2="24563.07" y2="4235.16">
   <stop offset="0" style="stop-opacity:0; stop-color:white"/>
   <stop offset="1" style="stop-opacity:1; stop-color:white"/>
  </linearGradient>
     <rect style="fill:url(#id1)" x="18164.54" y="1181.61" width="6408.53" height="6107.12"/>
    </mask>
    <mask id="id2">
  <linearGradient id="id3" gradientUnits="userSpaceOnUse" x1="36784.92" y1="8315.19" x2="37257.73" y2="2357.3">
   <stop offset="0" style="stop-opacity:0; stop-color:white"/>
   <stop offset="0.690196" style="stop-opacity:0.501961; stop-color:white"/>
   <stop offset="1" style="stop-opacity:1; stop-color:white"/>
  </linearGradient>
     <rect style="fill:url(#id3)" x="29239.36" y="2324.66" width="11973.87" height="5206.38"/>
    </mask>
    <mask id="id4">
  <linearGradient id="id5" gradientUnits="userSpaceOnUse" x1="36784.92" y1="8315.19" x2="37257.73" y2="2357.3">
   <stop offset="0" style="stop-opacity:0; stop-color:white"/>
   <stop offset="0.690196" style="stop-opacity:0.501961; stop-color:white"/>
   <stop offset="1" style="stop-opacity:1; stop-color:white"/>
  </linearGradient>
     <rect style="fill:url(#id5)" x="40845.16" y="2375.84" width="4386.73" height="5155.2"/>
    </mask>
    <mask id="id6">
  <linearGradient id="id7" gradientUnits="userSpaceOnUse" x1="36784.92" y1="8315.19" x2="37257.73" y2="2357.3">
   <stop offset="0" style="stop-opacity:0; stop-color:white"/>
   <stop offset="0.690196" style="stop-opacity:0.501961; stop-color:white"/>
   <stop offset="1" style="stop-opacity:1; stop-color:white"/>
  </linearGradient>
     <rect style="fill:url(#id7)" x="43689.71" y="2373.08" width="663.14" height="1636.34"/>
    </mask>
 </defs>
 <g id="Camada_x0020_1">
  <metadata id="CorelCorpID_0Corel-Layer"/>
  <g id="_1951253059552">
   <polygon class="fil0 str0" points="14904.45,7379.17 27840.84,7379.17 27840.84,387.03 14904.45,387.03 "/>
   <polygon class="fil1 str1" points="20596.73,6722.44 19845.82,7379.17 21255.09,7379.17 "/>
   <polygon class="fil1 str1" points="27840.84,387.03 21228.11,387.03 27840.84,5897.64 "/>
   <polygon class="fil1 str1" points="19023.81,7379.17 19533.69,5776.5 14904.45,1444 14904.45,7379.17 "/>
   <polygon class="fil2 str2" points="21368.81,1191.61 22119.47,3521.4 24563.07,3516.67 22583.41,4951.87 23342.98,7278.73 21368.81,5835.94 19394.63,7278.73 20154.2,4951.87 18174.54,3516.67 20618.14,3521.4 "/>
   <polygon class="fil3 str3" style="mask:url(#id0)" points="21368.81,1191.61 22119.47,3521.4 24563.07,3516.67 22583.41,4951.87 23342.98,7278.73 21368.81,5835.94 19394.63,7278.73 20154.2,4951.87 18174.54,3516.67 20618.14,3521.4 "/>
   <path class="fil4 str4" d="M29249.36 2411.43l2547.99 0c1382.83,0 1795.33,1933.63 868.77,2704.76 -216.9,180.52 -682.09,380.44 -985.89,398.5l-852.76 50.77 -25.58 1955.58 -1552.53 0 0 -5109.61zm1475.76 2114.38l381.16 0c300.7,0 511.7,-52.43 632.91,-156.16 121.2,-103.73 181.82,-236.61 181.82,-398.63 0,-157.37 -52.86,-290.04 -158.51,-399.78 -105.12,-109.16 -303.27,-164.35 -594.46,-164.35l-442.92 0 0 1118.92zm4660.45 2016.48l-1573.89 0 -251.76 978.75 -1246.7 0 1680.03 -5135.2 1181.79 0 1723.04 5135.2 -1261.9 0 -250.61 -978.75zm-327.52 -930.44l-444.3 -1441.4 -472.22 1441.4 916.52 0zm1914.39 1909.19l0 -5186.38 2434.36 0c1138.47,0 1636.84,963.15 1587.3,1567.94 -55.58,678.55 -413.42,1268.86 -1114.9,1429.12l954.59 1585.56 373.68 620.7 -571.14 -7.08 -795.95 -9.86 -1128.47 -2045.8c-14.58,-26.51 -38.3,-33.45 -50.58,-33.45l-417.82 0 0 2079.25 -1271.07 0zm1296.65 -2972.18l730.63 0c1041.14,0 970.64,-1200.16 26.82,-1200.16l-757.45 0 0 1200.16z"/>
   <path class="fil4 str4" d="M43709.38 6542.29l-1573.89 0 -251.76 978.75 -680.5 0 -362.91 -621.39 1476.74 -4513.81 1181.79 0 1723.04 5135.2 -1261.9 0 -250.61 -978.75zm-327.52 -930.44l-444.3 -1441.4 -472.22 1441.4 916.52 0z"/>
   <polygon class="fil5 str4" points="44342.85,2383.08 43699.71,2383.08 44342.85,3999.42 "/>
   <path class="fil6 str2" style="mask:url(#id2)" d="M29249.36 2411.43l2547.99 0c1382.83,0 1795.33,1933.63 868.77,2704.76 -216.9,180.52 -682.09,380.44 -985.89,398.5l-852.76 50.77 -25.58 1955.58 -1552.53 0 0 -5109.61zm1475.76 2114.38l381.16 0c300.7,0 511.7,-52.43 632.91,-156.16 121.2,-103.73 181.82,-236.61 181.82,-398.63 0,-157.37 -52.86,-290.04 -158.51,-399.78 -105.12,-109.16 -303.27,-164.35 -594.46,-164.35l-442.92 0 0 1118.92zm4660.45 2016.48l-1573.89 0 -251.76 978.75 -1246.7 0 1680.03 -5135.2 1181.79 0 1723.04 5135.2 -1261.9 0 -250.61 -978.75zm-327.52 -930.44l-444.3 -1441.4 -472.22 1441.4 916.52 0zm1914.39 1909.19l0 -5186.38 2434.36 0c1138.47,0 1636.84,963.15 1587.3,1567.94 -55.58,678.55 -413.42,1268.86 -1114.9,1429.12l954.59 1585.56 369.44 603.76 -1362.85 0 -1128.47 -2045.8c-14.58,-26.51 -38.3,-33.45 -50.58,-33.45l-417.82 0 0 2079.25 -1271.07 0zm1296.65 -2972.18l730.63 0c1041.14,0 970.64,-1200.16 26.82,-1200.16l-757.45 0 0 1200.16z"/>
   <path class="fil6 str2" style="mask:url(#id4)" d="M43709.38 6542.29l-1573.89 0 -251.76 978.75 -621.45 -1.33 -407.12 -665.48 1461.9 -4468.39 1181.79 0 1723.04 5135.2 -1261.9 0 -250.61 -978.75zm-327.52 -930.44l-444.3 -1441.4 -472.22 1441.4 916.52 0z"/>
   <polygon class="fil2 str2" style="mask:url(#id6)" points="44342.85,2383.08 43699.71,2383.08 44342.85,3999.42 "/>
   <path class="fil7" d="M1569.65 5408.98c0,-158.96 -145.81,-232.85 -289.76,-285.83 -111.73,-41.83 -212.1,-92.04 -212.1,-202.19 0,-128.27 109.84,-182.65 215.9,-182.65 81.43,0 149.62,22.31 200.73,75.29l81.43 -68.32c-64.39,-65.52 -166.65,-94.81 -285.96,-94.81 -174.22,0 -340.87,89.24 -340.87,271.89 0,157.56 128.77,225.88 272.68,278.86 119.34,44.63 229.17,100.41 229.17,211.94 0,115.73 -94.69,182.67 -213.99,182.67 -90.9,0 -185.6,-34.86 -244.31,-96.21l-81.43 68.32c70.06,71.1 193.16,117.13 327.64,117.13 189.35,0 340.87,-101.81 340.87,-276.09zm950.66 252.38l0 -87.84 -429.87 0 0 -383.45 384.42 0 0 -82.26 -384.42 0 0 -347.19 410.93 0 0 -86.46 -539.73 0 0 987.2 558.67 0zm1066.19 -111.56l-83.32 -62.75c-49.25,65.55 -132.58,108.78 -227.27,108.78 -219.67,0 -329.5,-195.22 -329.5,-428.07 0,-235.63 106.03,-428.05 327.63,-428.05 85.19,0 166.65,30.66 223.47,96.21l85.19 -64.15c-71.95,-83.66 -189.36,-121.3 -314.36,-121.3 -287.86,0 -460.18,220.31 -460.18,517.29 0,294.2 168.56,517.31 460.18,517.31 136.37,0 248.11,-48.8 318.16,-135.27zm1026.42 111.56l-261.31 -474.08c109.83,-12.55 240.5,-85.04 240.5,-252.38 0,-195.19 -168.55,-260.74 -344.67,-260.74l-321.96 0 0 987.2 130.67 0 0 -457.34 172.35 0 242.41 457.34 142.01 0zm-149.58 -722.26c0,118.5 -89.03,188.23 -231.07,188.23l-176.12 0 0 -370.9 170.45 0c119.31,0 236.74,40.43 236.74,182.67zm998.01 722.26l0 -87.84 -429.87 0 0 -383.45 384.42 0 0 -82.26 -384.42 0 0 -347.19 410.93 0 0 -86.46 -539.73 0 0 987.2 558.67 0zm916.62 -903.53l0 -83.67 -647.67 0 0 83.67 257.55 0 0 903.53 130.67 0 0 -903.53 259.45 0zm1034.11 903.53l-331.43 -987.2 -179.89 0 -340.87 987.2 134.44 0 85.22 -246.8 412.83 0 81.46 246.8 138.24 0zm-238.64 -324.87l-374.95 0 185.59 -574.47 7.57 0 181.79 574.47zm1229.9 324.87l-261.31 -474.08c109.83,-12.55 240.5,-85.04 240.5,-252.38 0,-195.19 -168.94,-260.74 -344.67,-260.74l-321.96 0 0 987.2 130.67 0 0 -457.34 172.35 0 242.41 457.34 142.01 0zm-149.58 -722.26c0,118.5 -89.42,188.23 -231.07,188.23l-176.12 0 0 -370.9 170.45 0c119.31,0 236.74,40.43 236.74,182.67zm521.78 722.26l0 -987.2 -132.58 0 0 987.2 132.58 0zm1094.64 0l-331.44 -987.2 -179.89 0 -340.87 987.2 134.44 0 85.23 -246.8 412.83 0 81.45 246.8 138.25 0zm-238.64 -324.87l-374.95 0 185.59 -574.47 7.57 0 181.79 574.47zm1643.8 -167.33c0,-324.87 -189.95,-495 -484.81,-495l-289.76 0 0 987.2 287.86 0c295.45,0 486.71,-168.71 486.71,-492.2zm-130.67 0c0,274.69 -65.8,407.13 -267.87,407.13l-245.36 0 0 -817.06 155.32 0c202.63,0 357.91,131.07 357.91,409.93zm1052.96 492.2l0 -87.84 -429.87 0 0 -383.45 384.42 0 0 -82.26 -384.42 0 0 -347.19 410.93 0 0 -86.46 -539.73 0 0 987.2 558.67 0z"/>
   <path class="fil8 str5" d="M14951.68 9030.94l0 565.94 -146.33 0 0 -1260.6 264.16 0c92.58,0 160.75,4.98 204.23,14.68 43.78,9.7 81.7,25.85 113.74,48.19 40.24,28.5 71.68,67.89 94.31,117.83 22.62,49.95 34.08,105.2 34.08,166.02 0,61.12 -11.46,116.37 -34.08,166.34 -22.63,49.95 -54.07,89.33 -94.31,117.83 -32.04,22.92 -69.96,39.36 -113.14,49.06 -43.5,9.7 -111.67,14.71 -204.83,14.71l-42 0 -75.83 0zm0 -135.77l75.83 0c128.4,0 215.08,-15 259.47,-45.25 44.36,-29.97 66.7,-82.57 66.7,-157.79 0,-80.23 -22.92,-136.66 -68.46,-169.27 -45.57,-32.62 -131.65,-49.06 -257.71,-49.06l-75.83 0 0 421.37zm2503.28 594.16c68.77,0 134.58,-12.93 196.59,-39.07 62.3,-26.16 118.43,-64.37 168.38,-114.31 49.34,-49.35 86.97,-105.22 112.82,-167.78 25.85,-62.61 38.81,-129.03 38.81,-198.95 0,-70.53 -12.96,-137.81 -39.1,-201.58 -26.14,-63.74 -63.79,-119.93 -112.53,-168.67 -49.37,-49.37 -105.22,-86.97 -167.52,-112.85 -61.98,-25.85 -128.1,-38.78 -197.45,-38.78 -69.93,0 -136.37,12.93 -198.93,38.78 -62.59,25.86 -117.83,63.48 -166.02,112.85 -49.37,49.95 -87,106.4 -112.85,169.56 -25.83,63.17 -38.78,130.16 -38.78,200.69 0,69.92 12.64,136.05 38.2,198.06 25.57,62.01 63.45,118.12 113.43,168.67 50.52,50.55 106.66,88.75 168.06,114.6 61.72,25.85 127.53,38.78 196.89,38.78zm673.49 -520.11c0,90.22 -16.72,175.14 -49.94,254.77 -33.2,79.92 -81.7,150.74 -145.47,212.74 -63.77,62.01 -137.21,109.6 -220.09,143.4 -83.14,33.51 -168.95,50.26 -257.99,50.26 -89.05,0 -174.55,-16.75 -257.11,-50.26 -82.28,-33.8 -155.48,-81.39 -219.22,-143.4 -64.35,-62.56 -113.14,-133.69 -146.94,-213.63 -33.48,-79.63 -50.23,-164.27 -50.23,-253.88 0,-90.23 16.75,-175.12 50.23,-255.35 33.8,-79.92 82.59,-151.37 146.94,-213.93 63.16,-61.41 136.05,-108.73 218.93,-141.92 82.56,-33.22 168.35,-49.95 257.4,-49.95 89.61,0 175.72,16.73 258.89,49.95 82.85,33.19 156.05,80.51 219.19,141.92 63.77,61.98 112.27,133.12 145.47,213.03 33.22,80.23 49.94,165.45 49.94,256.25zm1153.26 627.66l0 -1260.6 296.21 0c84.32,0 146.33,4.69 185.42,14.08 39.38,9.7 74.04,25.88 104.01,48.79 37.34,29.08 66.13,68.46 86.68,117.54 20.87,49.06 31.15,103.44 31.15,163.09 0,103.15 -28.89,181.96 -86.39,235.37 -57.79,53.67 -142.4,80.52 -253.6,80.52l-26.71 0 481.31 601.21 -190.41 0 -460.18 -601.21 -21.15 0 0 601.21 -146.34 0zm146.34 -1133.67l0 421.37 114.31 0c117.26,0 195.7,-14.97 235.37,-45.26 39.67,-29.96 59.36,-82.56 59.36,-157.78 0,-80.81 -20.26,-137.24 -61.11,-169.85 -40.85,-32.31 -118.91,-48.48 -233.62,-48.48l-114.31 0zm3688.7 1133.67l0 -1117.81 -356.14 0 0 -142.79 862.18 0 0 142.79 -354.41 0 0 1117.81 -151.63 0zm2391.08 -107.55c68.77,0 134.58,-12.93 196.59,-39.07 62.3,-26.16 118.44,-64.37 168.38,-114.31 49.35,-49.35 87.05,-105.3 112.83,-167.78 25.77,-62.53 38.8,-129.03 38.8,-198.95 0,-70.53 -13.03,-137.89 -39.09,-201.58 -26.06,-63.66 -63.85,-119.98 -112.54,-168.67 -49.34,-49.34 -105.21,-86.97 -167.51,-112.85 -61.98,-25.85 -128.11,-38.78 -197.46,-38.78 -69.93,0 -136.45,13.01 -198.93,38.78 -62.5,25.78 -117.83,63.48 -166.02,112.85 -49.37,49.95 -87.07,106.48 -112.85,169.56 -25.74,63.09 -38.77,130.16 -38.77,200.69 0,69.92 12.63,136.05 38.2,198.06 25.56,62.01 63.45,118.12 113.42,168.67 50.53,50.55 106.66,88.75 168.07,114.6 61.72,25.85 127.53,38.78 196.88,38.78zm673.5 -520.11c0,90.22 -16.73,175.14 -49.95,254.77 -33.19,79.92 -81.7,150.74 -145.46,212.74 -63.77,62.01 -137.21,109.6 -220.09,143.4 -83.14,33.51 -168.96,50.26 -258,50.26 -89.04,0 -174.54,-16.75 -257.11,-50.26 -82.27,-33.8 -155.56,-81.47 -219.22,-143.4 -64.26,-62.48 -113.13,-133.69 -146.93,-213.63 -33.48,-79.63 -50.24,-164.27 -50.24,-253.88 0,-90.23 16.76,-175.12 50.24,-255.35 33.8,-79.92 82.67,-151.45 146.93,-213.93 63.09,-61.33 136.05,-108.73 218.93,-141.92 82.57,-33.22 168.36,-49.95 257.4,-49.95 89.62,0 175.72,16.73 258.89,49.95 82.85,33.19 156.14,80.59 219.2,141.92 63.68,61.9 112.27,133.12 145.46,213.03 33.22,80.23 49.95,165.45 49.95,256.25zm1437.22 486.6l95.49 0c154.88,0 262.19,-6.84 321.76,-20.27 59.55,-13.42 109.44,-36.52 149.01,-69.35 51.62,-42.79 91.08,-98.42 117.83,-166.31 27.03,-68.17 40.53,-146.04 40.53,-233.9 0,-88.15 -13.21,-165.73 -39.96,-232.72 -26.74,-66.7 -66.2,-122.05 -118.4,-165.74 -39.57,-33.14 -89.94,-56.71 -151.05,-70.81 -61.12,-14.11 -167.68,-21.16 -319.72,-21.16l-95.49 0 0 980.26zm-151.63 141.06l0 -1260.6 242.14 0c178.94,0 305.01,9.1 378.18,27.03 73.16,18.2 137.53,48.48 192.45,90.8 72.29,55.82 127.27,126.93 164.58,213.61 37.31,86.68 55.83,186.6 55.83,299.74 0,112.53 -18.52,211.85 -55.54,298.25 -37.02,86.39 -92.05,157.6 -164.87,213.34 -55.13,42.24 -117.83,72.58 -188.04,90.8 -70.53,17.93 -180.02,27.03 -328.53,27.03l-54.06 0 -242.14 0zm2951.7 -107.55c68.78,0 134.59,-12.93 196.6,-39.07 62.29,-26.16 118.43,-64.37 168.38,-114.31 49.34,-49.35 87.05,-105.3 112.82,-167.78 25.77,-62.53 38.8,-129.03 38.8,-198.95 0,-70.53 -13.03,-137.89 -39.09,-201.58 -26.06,-63.66 -63.84,-119.98 -112.53,-168.67 -49.35,-49.34 -105.22,-86.97 -167.52,-112.85 -61.98,-25.85 -128.11,-38.78 -197.46,-38.78 -69.92,0 -136.44,13.01 -198.92,38.78 -62.51,25.78 -117.83,63.48 -166.03,112.85 -49.37,49.95 -87.07,106.48 -112.84,169.56 -25.75,63.09 -38.78,130.16 -38.78,200.69 0,69.92 12.64,136.05 38.2,198.06 25.56,62.01 63.45,118.12 113.42,168.67 50.53,50.55 106.67,88.75 168.07,114.6 61.72,25.85 127.53,38.78 196.88,38.78zm673.5 -520.11c0,90.22 -16.73,175.14 -49.95,254.77 -33.19,79.92 -81.7,150.74 -145.46,212.74 -63.77,62.01 -137.21,109.6 -220.09,143.4 -83.14,33.51 -168.96,50.26 -258,50.26 -89.04,0 -174.54,-16.75 -257.11,-50.26 -82.27,-33.8 -155.55,-81.47 -219.22,-143.4 -64.26,-62.48 -113.13,-133.69 -146.93,-213.63 -33.48,-79.63 -50.24,-164.27 -50.24,-253.88 0,-90.23 16.76,-175.12 50.24,-255.35 33.8,-79.92 82.67,-151.45 146.93,-213.93 63.09,-61.33 136.06,-108.73 218.94,-141.92 82.56,-33.22 168.35,-49.95 257.39,-49.95 89.62,0 175.73,16.73 258.89,49.95 82.86,33.19 156.14,80.59 219.2,141.92 63.68,61.9 112.27,133.12 145.46,213.03 33.22,80.23 49.95,165.45 49.95,256.25zm3316.08 520.11c68.77,0 134.58,-12.93 196.59,-39.07 62.3,-26.16 118.43,-64.37 168.38,-114.31 49.34,-49.35 87.15,-105.41 112.82,-167.78 25.67,-62.43 38.81,-129.03 38.81,-198.95 0,-70.53 -13.14,-138 -39.1,-201.58 -25.95,-63.55 -63.84,-119.98 -112.53,-168.67 -49.35,-49.34 -105.22,-86.97 -167.52,-112.85 -61.98,-25.85 -128.1,-38.78 -197.45,-38.78 -69.93,0 -136.56,13.11 -198.93,38.78 -62.4,25.67 -117.83,63.48 -166.02,112.85 -49.37,49.95 -87.18,106.58 -112.85,169.56 -25.64,62.98 -38.78,130.16 -38.78,200.69 0,69.92 12.64,136.05 38.2,198.06 25.57,62.01 63.45,118.12 113.43,168.67 50.52,50.55 106.66,88.75 168.06,114.6 61.72,25.85 127.54,38.78 196.89,38.78zm673.49 -520.11c0,90.22 -16.72,175.14 -49.94,254.77 -33.2,79.92 -81.7,150.74 -145.47,212.74 -63.77,62.01 -137.21,109.6 -220.09,143.4 -83.14,33.51 -168.95,50.26 -257.99,50.26 -89.05,0 -174.55,-16.75 -257.11,-50.26 -82.28,-33.8 -155.67,-81.57 -219.22,-143.4 -64.16,-62.37 -113.14,-133.69 -146.94,-213.63 -33.48,-79.63 -50.23,-164.27 -50.23,-253.88 0,-90.23 16.75,-175.12 50.23,-255.35 33.8,-79.92 82.78,-151.55 146.94,-213.93 62.98,-61.22 136.05,-108.73 218.93,-141.92 82.56,-33.22 168.35,-49.95 257.4,-49.95 89.61,0 175.72,16.73 258.89,49.95 82.85,33.19 156.24,80.7 219.19,141.92 63.58,61.8 112.27,133.12 145.47,213.03 33.22,80.23 49.94,165.45 49.94,256.25zm2759.52 61.69l0 565.95 -146.33 0 0 -1260.61 264.16 0c92.58,0 160.75,4.98 204.22,14.69 43.79,9.7 81.7,25.85 113.74,48.19 40.25,28.5 71.69,67.88 94.31,117.83 22.63,49.95 34.09,105.19 34.09,166.02 0,61.12 -11.83,116.75 -34.09,166.33 -22.23,49.59 -54.06,89.33 -94.31,117.83 -32.04,22.92 -69.95,39.36 -113.13,49.06 -43.5,9.7 -112.43,14.71 -204.83,14.71l-42 0 -75.83 0zm0 -135.76l75.83 0c128.39,0 215.07,-15 259.46,-45.26 44.37,-29.97 66.71,-82.56 66.71,-157.79 0,-80.23 -23.29,-137.05 -68.46,-169.27 -45.18,-32.25 -132.41,-49.06 -257.71,-49.06l-75.83 0 0 421.38zm2356.08 -276.8l-200.4 463.69 401.11 0 -200.71 -463.69zm0 -331.47l573.28 1309.98 -162.48 0 -163.69 -386.11 -492.19 0 -163.66 386.11 -162.22 0 570.96 -1309.98zm1849.8 1309.98l0 -1260.61 296.2 0c84.32,0 146.33,4.7 185.43,14.08 39.38,9.7 74.04,25.88 104.01,48.8 37.34,29.07 66.12,68.46 86.68,117.54 20.87,49.06 31.15,103.43 31.15,163.08 0,103.15 -29.24,182.31 -86.39,235.38 -57.45,53.33 -143.08,80.52 -253.6,80.52l-26.72 0 481.31 601.21 -190.4 0 -460.18 -601.21 -21.16 0 0 601.21 -146.33 0zm146.33 -1133.68l0 421.37 114.32 0c117.25,0 195.7,-14.97 235.37,-45.25 39.67,-29.97 59.36,-82.57 59.36,-157.79 0,-80.81 -20.27,-137.23 -61.12,-169.85 -40.85,-32.3 -119.58,-48.48 -233.61,-48.48l-114.32 0zm2339.46 155.19l-200.4 463.69 401.11 0 -200.71 -463.69zm0 -331.46l573.28 1309.97 -162.48 0 -163.69 -386.1 -492.19 0 -163.66 386.1 -162.22 0 570.96 -1309.97zm-121.37 -75.83l175.72 -299.71 233.38 0 -305.67 299.71 -103.43 0z"/>
   <path class="fil7" d="M30426.18 1651.09c-50.02,20.42 -115.24,40.33 -195.38,59.98 -79.89,19.39 -158.98,29.07 -236.77,29.07 -179.42,0 -322.68,-51.84 -429.28,-155.58 -106.6,-103.7 -160.03,-250.65 -160.03,-441.05 0,-179.42 53.43,-322.94 160.03,-430.87 106.6,-108.16 252.47,-162.12 437.65,-162.12 95.88,0 173.41,9.18 233.39,27.25 59.97,18.06 121.77,42.96 185.68,74.12l0 267.93 -26.2 0c-13.61,-10.74 -33.52,-25.92 -59.44,-45.57 -25.94,-19.65 -51.07,-36.41 -75.69,-50.28 -28.55,-16.25 -61.82,-30.4 -99.53,-42.17 -37.46,-11.79 -77.28,-17.55 -119.44,-17.55 -48.98,0 -94.04,7.6 -134.36,23.05 -40.59,15.46 -76.49,39.03 -108.45,70.7 -30.11,30.91 -53.93,69.93 -71.74,117.09 -17.56,47.13 -26.46,101.89 -26.46,164.48 0,133.85 33.52,232.59 100.58,296.23 67.04,63.63 158.72,95.34 274.99,95.34 10.24,0 22.27,-0.26 36.16,-0.8 13.87,-0.51 25.92,-1.3 36.13,-2.35l0 -224.71 -221.56 0 0 -215.3 499.72 0 0 563.11zm1767.65 -505.48c0,184.64 -49.34,330.05 -148,435.81 -98.69,105.75 -233.87,158.72 -405.44,158.72 -172.33,0 -307.56,-53.74 -405.72,-160.82 -98.15,-107.03 -147.18,-251.68 -147.18,-433.71 0,-183.36 49.03,-328.52 147.18,-435.04 98.16,-106.58 233.39,-160.05 405.72,-160.05 171.57,0 306.75,53.24 405.44,159.25 98.66,106.01 148,251.43 148,435.84zm-295.46 -0.8c0,-67.83 -7.3,-126.01 -21.22,-173.66 -13.97,-47.82 -32.57,-87.43 -56.29,-117.86 -24.36,-31.26 -52.5,-53.68 -83.31,-67.03 -31.14,-13.51 -63.1,-20.45 -96.36,-20.45 -35.37,0 -67.63,6.4 -96.14,18.86 -28.73,12.56 -56.67,34.67 -83.03,67.06 -23.8,29.28 -42.65,69.22 -57.09,118.12 -14.5,49.2 -22,107.9 -22,175.76 0,70.18 6.88,128.37 20.7,174.68 13.82,46.29 32.75,85.24 56.83,116.3 24.51,31.65 52.74,54.43 83.8,67.83 31.14,13.44 63.38,20.42 96.93,20.42 33.77,0 66.52,-7.5 98.2,-22 31.58,-14.46 59.36,-37.16 82.24,-67.84 24.67,-33.11 43.55,-72.08 56.83,-116.27 13.3,-44.19 19.91,-102.17 19.91,-173.92zm1932.37 -570.7l-393.13 1142.46 -299.63 0 -393.12 -1142.46 297.53 0 248.81 774.46 248.82 -774.46 290.72 0zm591.21 1142.46l0 -1142.46 773.18 0 0 218.41 -487.17 0 0 199.59 449.45 0 0 218.44 -449.45 0 0 287.58 487.17 0 0 218.44 -773.18 0zm2457.76 0l-350.45 0 -317.97 -419.59 -101.61 0 0 419.59 -286.02 0 0 -1142.46 459.66 0c63.38,0 118.67,3.79 165.8,11.77 47.14,7.98 91.02,24.64 130.42,49.51 40.77,25.69 73.34,59.18 97.44,99.26 24.11,40.07 36.16,91.14 36.16,152.96 0,87.48 -19.91,158.46 -59.21,212.68 -39.28,54.22 -92.19,97.7 -158.44,129.91l384.22 486.37zm-462.03 -793.6c0,-28.81 -5.76,-53.68 -16.48,-74.13 -10.75,-20.44 -29.27,-37.33 -54.5,-48.18 -17.48,-7.5 -37.69,-12.31 -59.7,-14.4 -22,-2.1 -49.77,-3.15 -81.73,-3.15l-95.59 0 0 308 81.73 0c39.78,0 73.82,-2.74 101.35,-7.32 27.48,-4.58 51.35,-15.74 70.72,-31.17 17.84,-14.17 32.19,-31.7 40.84,-51.35 8.65,-19.63 13.36,-46.09 13.36,-78.3zm1988.08 793.6l-276.32 0 -441.85 -796.49 0 796.49 -262.45 0 0 -1142.46 352.54 0 365.63 654.5 0 -654.5 262.45 0 0 1142.46zm1833.48 -570.96c0,184.64 -49.67,330.39 -148,435.81 -98.36,105.42 -233.87,158.72 -405.44,158.72 -172.33,0 -307.89,-54.07 -405.71,-160.82 -97.82,-106.7 -147.18,-251.68 -147.18,-433.71 0,-183.36 49.36,-328.85 147.18,-435.04 97.82,-106.24 233.38,-160.05 405.71,-160.05 171.57,0 307.08,53.58 405.44,159.25 98.33,105.68 148,251.43 148,435.84zm-295.46 -0.8c0,-67.83 -7.63,-126.35 -21.21,-173.66 -13.64,-47.49 -32.91,-87.76 -56.3,-117.86 -24.02,-30.93 -52.83,-54.01 -83.31,-67.03 -30.81,-13.18 -63.1,-20.45 -96.36,-20.45 -35.36,0 -67.96,6.73 -96.14,18.86 -28.4,12.23 -57,35 -83.03,67.06 -23.46,28.94 -42.98,69.55 -57.08,118.12 -14.18,48.87 -22.01,107.9 -22.01,175.76 0,70.18 7.22,128.7 20.7,174.68 13.49,45.96 33.09,85.57 56.83,116.3 24.18,31.32 53.07,54.76 83.8,67.83 30.81,13.1 63.38,20.42 96.93,20.42 33.77,0 66.86,-7.83 98.2,-22 31.25,-14.13 59.7,-37.49 82.24,-67.84 24.34,-32.77 43.88,-72.41 56.83,-116.27 12.97,-43.85 19.91,-102.17 19.91,-173.92zm2815.48 1.57c0,106.59 -23.59,202.21 -69.67,286.01 -46.04,83.75 -106.22,148.59 -176.53,193.55 -58.98,37.71 -124.28,63.58 -193.55,74.13 -69.47,10.59 -144.93,16.5 -222.89,16.5l-357.26 0 0 -1142.46 354.39 0c80.14,0 155.73,5.65 225.22,15.43 69.78,9.8 136.28,35.46 197.23,74.41 74.64,47.67 134.85,113.27 177.84,194.33 43.11,81.25 65.22,177.84 65.22,288.1zm-295.43 -2.61c0,-74.92 -13.28,-139.51 -38.51,-192.53 -25.23,-52.99 -65.84,-95.59 -118.91,-125.17 -38,-21.16 -79.78,-33.57 -121.8,-35.11 -41.99,-1.53 -94.11,-3.14 -152.42,-3.14l-5.25 0 0 713.46 5.25 0c64.17,0 118.83,-1.49 162.38,-3.41 43.57,-1.92 86.36,-16.4 125.74,-41.12 46.44,-29.17 82.52,-70.18 106.85,-122.31 24.33,-52.12 36.67,-115.5 36.67,-190.67zm2094.52 27.43c0,184.64 -49.79,330.54 -148,435.8 -98.2,105.3 -233.87,158.72 -405.43,158.72 -172.34,0 -308.03,-54.22 -405.72,-160.81 -97.67,-106.58 -147.18,-251.68 -147.18,-433.71 0,-183.37 49.51,-328.98 147.18,-435.05 97.69,-106.08 233.38,-160.05 405.72,-160.05 171.56,0 307.23,53.71 405.43,159.26 98.21,105.52 148,251.43 148,435.84zm-295.46 -0.8c0,-67.83 -7.75,-126.5 -21.21,-173.66 -13.49,-47.36 -33.06,-87.89 -56.29,-117.86 -23.9,-30.78 -53,-54.14 -83.32,-67.04 -30.68,-13.02 -63.1,-20.44 -96.36,-20.44 -35.36,0 -68.11,6.86 -96.13,18.86 -28.28,12.07 -57.16,35.13 -83.03,67.06 -23.34,28.79 -43.14,69.68 -57.09,118.11 -14.05,48.72 -22.01,107.91 -22.01,175.77 0,70.18 7.35,128.85 20.71,174.68 13.33,45.83 33.23,85.7 56.83,116.3 24.05,31.16 53.19,54.91 83.79,67.83 30.66,12.97 63.39,20.42 96.93,20.42 33.78,0 66.99,-7.98 98.21,-22.01 31.08,-13.99 59.85,-37.61 82.23,-67.83 24.21,-32.62 44.02,-72.57 56.83,-116.27 12.82,-43.73 19.91,-102.17 19.91,-173.92z"/>
   <path class="fil9 str6" d="M789.82 7245.49c0,-152.77 -121.24,-223.79 -240.89,-274.71 -92.91,-40.2 -176.35,-88.45 -176.35,-194.32 0,-123.3 91.33,-175.56 179.49,-175.56 67.71,0 124.39,21.44 166.9,72.36l67.69 -65.65c-53.52,-63 -138.54,-91.14 -237.73,-91.14 -144.87,0 -283.41,85.77 -283.41,261.32 0,151.44 107.06,217.11 226.73,268.03 99.19,42.88 190.5,96.49 190.5,203.69 0,111.24 -78.72,175.56 -177.91,175.56 -75.58,0 -154.3,-33.51 -203.11,-92.47l-67.71 65.66c58.26,68.34 160.6,112.57 272.4,112.57 157.43,0 283.4,-97.82 283.4,-265.34zm1073.77 242.56l-275.54 -948.79 -149.57 0 -283.41 948.79 111.79 0 70.85 -237.2 343.23 0 67.71 237.2 114.94 0zm-198.39 -312.24l-311.74 0 154.29 -552.12 6.3 0 151.15 552.12zm1317.7 -20.1l0 -616.45 -110.22 0 0 604.39c0,141.83 -37.79,281.42 -207.83,281.42 -171.61,0 -207.84,-140.71 -207.84,-281.42l0 -604.39 -110.2 0 0 616.45c0,196.79 77.14,355.12 316.47,355.12 239.32,0 319.62,-158.12 319.62,-355.12zm-67.32 -995.27l-113.36 0 -141.71 192.97 88.17 0 166.9 -192.97zm1214.18 864.57c0,-312.26 -158.1,-475.74 -403.07,-475.74l-240.9 0 0 948.78 239.32 0c245.62,0 404.65,-162.15 404.65,-473.04zm-108.64 0c0,263.99 -129.76,391.29 -297.57,391.29l-129.12 0 0 -785.3 129.12 0c168.46,0 297.57,125.98 297.57,394.01zm1111.33 473.04l0 -84.42 -357.42 0 0 -368.52 319.64 0 0 -79.08 -319.64 0 0 -333.68 341.67 0 0 -83.08 -448.72 0 0 948.78 464.47 0zm1361.34 -691.49c0,-198.33 -155.2,-257.29 -283.4,-257.29l-262.94 0 0 948.78 108.64 0 0 -423.47 163.74 0c144.87,0 273.96,-92.47 273.96,-268.02zm-108.64 1.33c0,125.98 -81.21,187.63 -179.49,187.63l-149.57 0 0 -365.85 148.01 0c99.19,0 181.05,52.27 181.05,178.22zm1240.43 357.82l0 -616.44 -110.22 0 0 604.38c0,141.17 -37.79,281.42 -207.83,281.42 -171.61,0 -207.84,-140.71 -207.84,-281.42l0 -604.38 -110.2 0 0 616.44c0,196.13 77.14,355.12 316.47,355.12 239.32,0 319.62,-158.12 319.62,-355.12zm-77.51 -1005.27l-113.36 0 -121.35 202.98 88.17 0 146.54 -202.98zm1129.07 1078.97c0,-158.12 -113.36,-227.81 -195.22,-241.22l0 -2.67c80.29,-24.12 157.43,-87.1 157.43,-214.42 0,-182.26 -161.71,-231.83 -284.97,-231.83l-251.92 0 0 948.78 284.99 0c125.95,0 289.69,-61.65 289.69,-258.64zm-140.12 -444.91c0,121.96 -100.31,170.2 -190.52,170.2l-140.13 0 0 -336.37 136.98 0c97.62,0 193.67,40.2 193.67,166.17zm31.48 439.56c0,128.65 -92.42,184.93 -206.25,184.93l-155.88 0 0 -379.25 155.88 0c92.89,0 206.25,52.26 206.25,194.32zm973.4 263.99l0 -87.1 -318.03 0 0 -861.68 -110.22 0 0 948.78 428.25 0zm523 0l0 -948.78 -110.22 0 0 948.78 110.22 0zm983.54 -107.2l-69.27 -60.3c-40.93,62.98 -110.22,104.52 -188.94,104.52 -182.64,0 -273.96,-187.62 -273.96,-411.41 0,-226.48 88.16,-411.41 272.38,-411.41 70.85,0 138.56,29.48 185.79,92.46l70.85 -61.65c-59.82,-80.4 -157.45,-116.58 -261.37,-116.58 -239.31,0 -382.59,211.74 -382.59,497.18 0,282.76 140.14,497.17 382.59,497.17 113.37,0 206.27,-46.9 264.52,-129.98zm1129.35 107.2l-275.54 -948.78 -149.57 0 -283.41 948.78 111.78 0 70.85 -237.19 343.23 0 67.71 237.19 114.95 0zm-198.39 -312.23l-311.75 0 154.3 -552.13 6.3 0 151.15 552.13z"/>
  </g>
 </g>
</svg>
